<?xml version="1.0" standalone="no"?>
<!DOCTYPE svg PUBLIC "-//W3C//DTD SVG 20010904//EN"
 "http://www.w3.org/TR/2001/REC-SVG-20010904/DTD/svg10.dtd">
<svg version="1.0" xmlns="http://www.w3.org/2000/svg"
 width="109.000000pt" height="27.000000pt" viewBox="0 0 109.000000 27.000000"
 preserveAspectRatio="xMidYMid meet">
<metadata>
Created by potrace 1.10, written by Peter Selinger 2001-2011
</metadata>
<g transform="translate(0.000000,27.000000) scale(0.100000,-0.100000)"
fill="#337ab7" stroke="none">
<path d="M957 210 c-47 -38 -45 -120 4 -135 22 -7 59 18 59 42 0 18 -10 16
-25 -4 -7 -9 -17 -13 -24 -9 -15 10 -5 65 15 86 13 13 15 12 20 -8 8 -28 20
-28 28 1 9 34 7 40 -10 33 -9 -4 -22 -2 -29 4 -9 7 -20 4 -38 -10z"/>
<path d="M75 211 c5 -9 -6 -75 -21 -123 -4 -14 1 -18 20 -18 22 0 26 4 26 30
0 38 18 40 22 3 2 -21 9 -29 27 -31 20 -3 23 -1 16 15 -4 10 -9 35 -12 56 -5
34 -3 38 13 35 13 -2 20 4 22 20 5 32 -18 28 -51 -10 -26 -30 -28 -26 -11 17
5 11 -1 15 -26 15 -17 0 -29 -4 -25 -9z"/>
<path d="M203 163 c-6 -32 -14 -66 -18 -75 -6 -15 -2 -18 25 -18 26 0 30 3 25
19 -7 22 3 51 17 51 6 0 8 -11 6 -25 -6 -27 14 -51 32 -40 6 4 10 21 9 39 -1
17 1 39 5 48 16 36 3 53 -44 56 l-45 3 -12 -58z m67 17 c0 -11 -4 -20 -10 -20
-5 0 -10 9 -10 20 0 11 5 20 10 20 6 0 10 -9 10 -20z"/>
<path d="M333 163 c-6 -32 -14 -66 -18 -75 -6 -14 -2 -18 17 -18 22 0 26 6 35
58 6 31 14 65 18 75 6 13 2 17 -17 17 -22 0 -26 -6 -35 -57z"/>
<path d="M410 201 c-15 -28 -13 -36 15 -69 14 -17 21 -33 16 -36 -5 -4 -17 4
-25 16 -18 25 -22 23 -31 -17 -6 -24 -5 -28 5 -18 9 8 19 9 32 2 23 -12 54 3
63 32 5 15 -1 29 -21 50 -30 31 -26 53 4 26 20 -18 32 -13 32 13 0 26 -76 26
-90 1z"/>
<path d="M523 208 c2 -26 -16 -108 -24 -114 -19 -11 -8 -24 21 -24 28 0 30 3
30 35 0 28 4 35 20 35 17 0 18 -3 10 -26 -15 -37 -13 -44 13 -44 20 0 24 7 34
57 5 32 13 66 18 76 6 14 2 17 -25 17 -18 0 -29 -4 -25 -10 10 -16 -5 -50 -21
-50 -17 0 -18 14 -4 41 9 17 7 19 -19 19 -17 0 -28 -5 -28 -12z"/>
<path d="M690 193 c0 -25 0 -26 20 -8 24 22 24 17 5 -55 -8 -30 -15 -56 -15
-57 0 -2 10 -3 23 -3 21 0 25 7 37 67 11 56 15 64 25 50 17 -24 25 -21 25 8 0
24 -3 25 -60 25 -58 0 -60 -1 -60 -27z"/>
<path d="M820 163 c-7 -32 -17 -64 -22 -70 -13 -16 4 -22 57 -20 33 2 41 6 43
25 4 25 -13 30 -22 7 -9 -24 -26 -17 -26 11 0 21 4 24 20 19 16 -5 20 -2 20
14 0 14 -5 19 -15 15 -17 -7 -19 4 -5 26 9 13 12 13 24 -2 15 -20 26 -14 26
14 0 15 -8 18 -43 18 l-44 0 -13 -57z"/>
</g>
</svg>
