<?xml version="1.0" standalone="no"?>
<!DOCTYPE svg PUBLIC "-//W3C//DTD SVG 20010904//EN"
 "http://www.w3.org/TR/2001/REC-SVG-20010904/DTD/svg10.dtd">
<svg version="1.0" xmlns="http://www.w3.org/2000/svg"
 width="327.000000pt" height="81.000000pt" viewBox="0 0 327.000000 81.000000"
 preserveAspectRatio="xMidYMid meet">
<metadata>
Created by potrace 1.10, written by Peter Selinger 2001-2011
</metadata>
<g transform="translate(0.000000,81.000000) scale(0.100000,-0.100000)"
fill="#f28123" stroke="none">
<path d="M2895 655 c-16 -7 -40 -24 -51 -37 -26 -27 -64 -97 -64 -116 0 -7 -7
-35 -16 -62 -15 -45 -15 -53 1 -107 9 -32 24 -66 33 -77 20 -22 85 -56 107
-56 29 0 94 40 118 72 33 45 38 63 23 83 -17 24 -46 12 -71 -28 -27 -42 -73
-45 -92 -6 -11 22 -10 38 2 90 8 35 17 76 20 90 6 36 42 79 65 79 20 0 42 -34
54 -82 8 -35 42 -38 55 -5 23 57 41 135 35 150 -8 23 -40 21 -61 -2 -16 -19
-17 -19 -64 5 -55 27 -53 27 -94 9z"/>
<path d="M223 649 c-8 -8 -9 -18 0 -36 8 -18 8 -36 -3 -71 -7 -26 -17 -72 -21
-102 -11 -78 -32 -145 -52 -168 -20 -22 -22 -46 -5 -59 7 -5 42 -7 78 -4 l65
6 1 55 c2 116 1 112 32 108 25 -3 27 -6 33 -66 8 -82 26 -102 91 -102 53 0 71
18 50 49 -7 9 -14 21 -16 26 -1 6 -9 26 -16 45 -20 55 -33 146 -26 175 7 27
22 30 66 11 9 -4 25 2 38 14 31 29 31 104 1 120 -35 19 -62 3 -109 -66 -45
-66 -88 -114 -102 -114 -23 0 4 85 44 141 24 34 3 49 -70 49 -37 0 -73 -5 -79
-11z"/>
<path d="M628 649 c-6 -4 -8 -22 -4 -45 7 -38 -2 -100 -22 -159 -6 -16 -18
-61 -27 -100 -9 -38 -24 -78 -32 -87 -31 -35 -10 -48 76 -48 64 0 80 3 85 16
4 10 -1 25 -10 35 -11 12 -14 28 -11 46 20 99 28 114 58 106 32 -9 40 -35 27
-97 -11 -51 -10 -58 8 -83 28 -37 58 -40 99 -9 34 26 34 26 45 6 9 -17 21 -20
80 -20 49 0 70 4 71 13 0 6 2 35 4 62 5 96 44 256 76 317 11 21 17 42 14 48
-9 14 -142 13 -151 -2 -4 -6 -8 -39 -9 -72 -2 -61 -21 -165 -47 -261 -10 -37
-18 -51 -34 -53 -29 -4 -48 37 -40 87 5 33 2 44 -15 60 l-21 19 36 33 c33 30
36 37 36 88 0 88 -17 98 -164 102 -64 3 -122 1 -128 -2z m176 -75 c8 -22 7
-77 -2 -90 -4 -6 -17 -16 -29 -22 -17 -10 -25 -9 -37 4 -19 18 -18 11 -5 74
10 46 13 50 39 50 16 0 30 -7 34 -16z"/>
<path d="M1275 651 c-28 -12 -47 -36 -62 -80 -28 -79 -11 -125 67 -191 54 -45
65 -81 32 -99 -27 -14 -60 7 -87 54 -31 57 -52 52 -75 -15 -33 -96 -22 -130
31 -91 l29 21 48 -27 49 -27 41 18 c51 23 75 50 92 103 21 69 3 104 -98 185
-26 20 -33 32 -30 55 2 22 9 29 30 31 22 3 33 -5 60 -42 18 -25 38 -45 44 -46
17 0 44 67 44 111 0 49 -21 61 -54 30 -20 -19 -23 -19 -38 -5 -19 19 -94 28
-123 15z"/>
<path d="M1568 649 c-14 -8 -15 -14 -6 -34 11 -24 2 -92 -22 -165 -5 -14 -12
-52 -15 -85 -5 -40 -15 -70 -31 -92 -41 -54 -34 -63 49 -63 42 0 78 5 85 12 7
7 9 27 5 54 -3 23 -2 63 1 88 l7 46 49 0 c27 0 51 -3 54 -8 8 -13 -18 -106
-38 -134 -31 -46 -17 -58 69 -58 l75 0 0 64 c0 36 5 77 11 93 6 15 14 55 19
88 9 67 26 116 54 158 13 20 16 31 8 39 -11 11 -156 8 -168 -4 -4 -4 -1 -21 6
-37 8 -21 9 -39 2 -63 -6 -18 -13 -45 -16 -60 -6 -25 -11 -28 -50 -28 -49 0
-60 13 -46 57 14 47 39 101 50 108 8 5 7 11 -1 21 -14 16 -124 19 -151 3z"/>
<path d="M2080 648 c-22 -8 -39 -123 -21 -141 15 -15 42 1 58 35 17 34 40 51
58 44 20 -7 18 -43 -5 -91 -11 -22 -19 -50 -20 -61 0 -12 -7 -38 -15 -57 -8
-20 -15 -50 -15 -66 0 -19 -8 -35 -21 -45 -16 -11 -20 -21 -15 -40 6 -24 7
-25 79 -19 39 3 75 11 79 17 4 6 5 28 1 48 -3 22 1 57 10 85 23 71 37 139 37
176 0 70 43 75 66 6 14 -41 29 -47 47 -17 21 32 30 117 14 123 -20 8 -317 11
-337 3z"/>
<path d="M2488 649 c-5 -4 -11 -33 -13 -65 -1 -33 -12 -90 -24 -129 -12 -38
-25 -92 -30 -118 -5 -27 -18 -58 -32 -73 -18 -19 -21 -29 -13 -42 16 -24 271
-19 295 6 24 25 33 107 13 123 -13 11 -21 6 -56 -34 -63 -74 -104 -59 -91 33
10 65 36 88 60 53 18 -27 48 -30 57 -7 3 9 6 36 6 60 0 47 -16 58 -40 29 -17
-21 -50 -19 -50 3 0 9 7 35 14 57 12 33 19 41 44 43 32 3 62 -26 62 -60 0 -25
26 -22 44 4 19 27 22 117 4 120 -34 5 -241 2 -250 -3z"/>
</g>
</svg>
